 <svg
            width="35"
            height="30"
            viewBox="0 0 36 35"
            fill="none"
            xmlns="http://www.w3.org/2000/svg"
          >
            <path
              fillRule="evenodd"
              clipRule="evenodd"
              d="M17.8335 0C17.1331 3.76629e-05 16.4523 0.282532 15.8966 0.803674C15.341 1.32482 14.9415 2.05548 14.7602 2.88236C14.579 3.70923 14.626 4.58611 14.894 5.37701C15.162 6.1679 15.636 6.82861 16.2426 7.25667V9.72222H11.4699C6.37895 9.72222 5.10622 14.9081 5.10622 17.5V31.1111C5.10622 32.4081 5.74259 35 8.28804 35H9.87895V27.2222C9.87895 26.7065 10.0466 26.2119 10.3449 25.8473C10.6433 25.4826 11.0479 25.2778 11.4699 25.2778H24.1971C24.6191 25.2778 25.0237 25.4826 25.3221 25.8473C25.6204 26.2119 25.788 26.7065 25.788 27.2222V35H27.379C29.9244 35 30.5608 32.4081 30.5608 31.1111V17.5C30.5608 11.2778 26.3178 9.72222 24.1971 9.72222H19.4244V7.25667C20.031 6.82861 20.505 6.1679 20.773 5.37701C21.041 4.58611 21.088 3.70923 20.9068 2.88236C20.7255 2.05548 20.326 1.32482 19.7704 0.803674C19.2147 0.282532 18.5339 3.76629e-05 17.8335 0V0ZM22.6062 35V29.1667H19.4244V35H22.6062ZM16.2426 35V29.1667H13.0608V35H16.2426ZM32.1517 29.1667V19.4444C33.2128 19.4444 35.3335 20.2222 35.3335 23.3333V25.2778C35.3335 26.5747 34.6971 29.1667 32.1517 29.1667ZM3.51531 19.4444V29.1667C0.96986 29.1667 0.333496 26.5747 0.333496 25.2778V23.3333C0.333496 20.2222 2.45418 19.4444 3.51531 19.4444ZM13.0608 17.5C12.6388 17.5 12.2342 17.7049 11.9358 18.0695C11.6375 18.4342 11.4699 18.9287 11.4699 19.4444C11.4699 19.9601 11.6375 20.4547 11.9358 20.8194C12.2342 21.184 12.6388 21.3889 13.0608 21.3889H13.0624C13.4843 21.3889 13.8889 21.184 14.1873 20.8194C14.4857 20.4547 14.6533 19.9601 14.6533 19.4444C14.6533 18.9287 14.4857 18.4342 14.1873 18.0695C13.8889 17.7049 13.4843 17.5 13.0624 17.5H13.0608ZM21.0153 19.4444C21.0153 18.9287 21.1829 18.4342 21.4813 18.0695C21.7796 17.7049 22.1843 17.5 22.6062 17.5H22.6078C23.0298 17.5 23.4344 17.7049 23.7328 18.0695C24.0311 18.4342 24.1987 18.9287 24.1987 19.4444C24.1987 19.9601 24.0311 20.4547 23.7328 20.8194C23.4344 21.184 23.0298 21.3889 22.6078 21.3889H22.6062C22.1843 21.3889 21.7796 21.184 21.4813 20.8194C21.1829 20.4547 21.0153 19.9601 21.0153 19.4444Z"
              fill="#6750AC"
            />
          </svg>